<svg width="21" height="20" viewBox="0 0 21 20" fill="none" xmlns="http://www.w3.org/2000/svg">
<path d="M17.1665 9.99996C17.1665 11.7681 16.4641 13.4638 15.2139 14.714C13.9636 15.9642 12.2679 16.6666 10.4998 16.6666C8.73173 16.6666 7.03603 15.9642 5.78579 14.714C4.53555 13.4638 3.83317 11.7681 3.83317 9.99996C3.83317 8.23185 4.53555 6.53616 5.78579 5.28591C7.03603 4.03567 8.73173 3.33329 10.4998 3.33329C11.1332 3.33329 11.7498 3.42496 12.3332 3.59163L13.6415 2.28329C12.6748 1.88329 11.6165 1.66663 10.4998 1.66663C9.40549 1.66663 8.32185 1.88217 7.31081 2.30096C6.29976 2.71975 5.3811 3.33358 4.60728 4.1074C3.04448 5.67021 2.1665 7.78982 2.1665 9.99996C2.1665 12.2101 3.04448 14.3297 4.60728 15.8925C5.3811 16.6663 6.29976 17.2802 7.31081 17.699C8.32185 18.1177 9.40549 18.3333 10.4998 18.3333C12.71 18.3333 14.8296 17.4553 16.3924 15.8925C17.9552 14.3297 18.8332 12.2101 18.8332 9.99996M7.0915 8.39996L5.9165 9.58329L9.6665 13.3333L17.9998 4.99996L16.8248 3.81663L9.6665 10.975L7.0915 8.39996Z" fill="#27B5B7"/>
</svg>
