<svg xmlns="http://www.w3.org/2000/svg" width="100" height="100" viewBox="0 0 100 100" fill="none">
  <g clip-path="url(#clip0_116_924)">
    <path d="M51.3242 65.0234C57.1152 60.7246 55.7402 50.5 55.7128 50.2988C55.2851 49.7246 54.8124 49.1523 54.2831 48.5859C47.2675 41.0977 38.539 42.2109 33.3398 46.6484C26.5663 52.4297 30.289 53.9043 24.2226 59.293C19.5878 63.4121 10.955 65.8945 6.91595 66.8809C5.98041 67.1094 5.66791 68.2812 6.36127 68.9492L15.7656 78.0098L20.8242 76.7539L20.0253 81.8672L30.0839 92.5547C30.5273 89.7344 32.4785 78.8281 36.8671 73.1289C39.8906 69.2031 45.4745 69.3633 51.3222 65.0215L51.3242 65.0234Z" fill="#C66C58"/>
    <path d="M58.7539 57.6973C58.6699 56.9668 58.5254 56.2285 58.3164 55.4844C57.834 53.7656 56.9961 52.0254 55.7227 50.3125L55.7109 50.2988C55.7383 50.5 57.1152 60.7246 51.3223 65.0234C45.4727 69.3652 39.8906 69.2051 36.8672 73.1309C32.4785 78.8301 30.5273 89.7363 30.084 92.5566L33.1387 95.8008C33.5566 96.2461 34.1758 96.2852 34.6367 96.0254C34.9238 95.8633 35.1504 95.5859 35.2266 95.2129C35.3457 94.6406 35.4922 93.9824 35.6699 93.2637L39.3652 83.3867C40.125 82.002 41 80.6816 42.0039 79.5156C42.334 79.1328 42.6738 78.7656 43.0313 78.4199C44.9863 76.5293 46.6328 75.3144 48.0684 74.4062C51.1367 72.4648 53.2441 71.9297 55.332 69.2344C56.5898 67.6133 57.6582 65.6133 58.2793 63.3945C58.7773 61.6094 58.9824 59.6836 58.7539 57.6973Z" fill="#B85C4B"/>
    <path d="M7.70703 88.082C9.67994 88.082 11.2793 86.4827 11.2793 84.5098C11.2793 82.5369 9.67994 80.9375 7.70703 80.9375C5.73412 80.9375 4.13477 82.5369 4.13477 84.5098C4.13477 86.4827 5.73412 88.082 7.70703 88.082Z" fill="#DBD7DB"/>
    <path d="M7.70703 89.3066C5.0625 89.3066 2.91016 87.1543 2.91016 84.5098C2.91016 81.8652 5.0625 79.7129 7.70703 79.7129C10.3516 79.7129 12.5039 81.8652 12.5039 84.5098C12.5039 87.1543 10.3516 89.3066 7.70703 89.3066ZM7.70703 82.1602C6.41211 82.1602 5.35742 83.2148 5.35742 84.5098C5.35742 85.8047 6.41211 86.8594 7.70703 86.8594C9.00195 86.8594 10.0566 85.8047 10.0566 84.5098C10.0566 83.2148 9.00195 82.1602 7.70703 82.1602Z" fill="black"/>
    <path d="M87.334 76.6895C89.3069 76.6895 90.9063 75.0901 90.9063 73.1172C90.9063 71.1443 89.3069 69.5449 87.334 69.5449C85.3611 69.5449 83.7617 71.1443 83.7617 73.1172C83.7617 75.0901 85.3611 76.6895 87.334 76.6895Z" fill="#DBD7DB"/>
    <path d="M87.334 77.9121C84.6895 77.9121 82.5371 75.7598 82.5371 73.1152C82.5371 70.4707 84.6895 68.3184 87.334 68.3184C89.9785 68.3184 92.1309 70.4707 92.1309 73.1152C92.1309 75.7598 89.9785 77.9121 87.334 77.9121ZM87.334 70.7656C86.0391 70.7656 84.9844 71.8203 84.9844 73.1152C84.9844 74.4102 86.0391 75.4648 87.334 75.4648C88.6289 75.4648 89.6836 74.4102 89.6836 73.1152C89.6836 71.8203 88.6289 70.7656 87.334 70.7656Z" fill="black"/>
    <path d="M71.5508 62.8008C74.1083 62.8008 76.1816 60.7275 76.1816 58.1699C76.1816 55.6124 74.1083 53.5391 71.5508 53.5391C68.9932 53.5391 66.9199 55.6124 66.9199 58.1699C66.9199 60.7275 68.9932 62.8008 71.5508 62.8008Z" fill="#DBD7DB"/>
    <path d="M71.5508 64.0254C68.3223 64.0254 65.6953 61.3984 65.6953 58.1699C65.6953 54.9414 68.3223 52.3145 71.5508 52.3145C74.7793 52.3145 77.4063 54.9414 77.4063 58.1699C77.4063 61.3984 74.7793 64.0254 71.5508 64.0254ZM71.5508 54.7617C69.6719 54.7617 68.1426 56.291 68.1426 58.1699C68.1426 60.0488 69.6719 61.5781 71.5508 61.5781C73.4297 61.5781 74.959 60.0488 74.959 58.1699C74.959 56.291 73.4297 54.7617 71.5508 54.7617Z" fill="black"/>
    <path d="M85.0879 97.6387H2.89648C2.2207 97.6387 1.67383 97.0918 1.67383 96.416C1.67383 95.7402 2.2207 95.1934 2.89648 95.1934H85.0879C85.7637 95.1934 86.3105 95.7402 86.3105 96.416C86.3105 97.0918 85.7637 97.6387 85.0879 97.6387Z" fill="black"/>
    <path d="M8.2168 57.7715C7.86914 57.7715 7.52344 57.623 7.28125 57.3359C5.94141 55.7461 5.20312 53.7246 5.20312 51.6426C5.20312 46.7695 9.16797 42.8066 14.0391 42.8066C16.2227 42.8066 18.3086 43.6133 19.918 45.0508C21.4336 43.9238 23.2617 43.3125 25.1797 43.3125C25.8555 43.3125 26.4023 43.8594 26.4023 44.5352C26.4023 45.2109 25.8555 45.7578 25.1797 45.7578C23.4961 45.7578 21.9062 46.4102 20.7012 47.5937C20.459 47.832 20.1289 47.957 19.7891 47.9434C19.4492 47.9277 19.1309 47.7715 18.9121 47.5137C17.6934 46.0762 15.918 45.252 14.041 45.252C10.5176 45.252 7.65039 48.1191 7.65039 51.6426C7.65039 53.1484 8.18359 54.6094 9.15234 55.7578C9.58789 56.2734 9.52148 57.0469 9.00586 57.4805C8.77734 57.6738 8.49609 57.7695 8.21875 57.7695L8.2168 57.7715Z" fill="black"/>
    <path d="M42.3945 36.9316C41.7187 36.9316 41.1719 36.3848 41.1719 35.709C41.1719 35.0332 41.7187 34.4863 42.3945 34.4863C45.918 34.4863 48.7852 31.6191 48.7852 28.0957C48.7852 24.5723 45.918 21.7051 42.3945 21.7051C41.7187 21.7051 41.1719 21.1582 41.1719 20.4824C41.1719 16.959 38.3047 14.0918 34.7812 14.0918C31.2578 14.0918 28.3906 16.959 28.3906 20.4824C28.3906 21.6699 28.7266 22.8359 29.3613 23.8555C29.5508 24.1582 29.5977 24.5273 29.4902 24.8672C29.3848 25.207 29.1348 25.4844 28.8086 25.625C26.4648 26.6387 24.9512 28.9414 24.9512 31.4902C24.9512 32.166 24.4043 32.7129 23.7285 32.7129C23.0527 32.7129 22.5059 32.166 22.5059 31.4902C22.5059 28.4062 24.1074 25.584 26.6758 23.9883C26.1953 22.8828 25.9453 21.6914 25.9453 20.4824C25.9453 15.6094 29.9102 11.6465 34.7812 11.6465C39.2637 11.6465 42.9785 15.002 43.543 19.334C47.875 19.8984 51.2305 23.6133 51.2305 28.0957C51.2305 32.9688 47.2656 36.9316 42.3945 36.9316Z" fill="black"/>
    <path d="M55.7088 51.5137C55.5018 51.5137 55.2928 51.4609 55.1014 51.3516C55.0213 51.3067 49.0936 47.9902 44.66 50.875C44.0936 51.2442 43.3358 51.082 42.9666 50.5156C42.5975 49.9492 42.7596 49.1914 43.326 48.8223C49.033 45.1094 56.0272 49.0606 56.3221 49.2305C56.908 49.5684 57.1092 50.3164 56.7713 50.9004C56.5447 51.293 56.1326 51.5137 55.7108 51.5137H55.7088Z" fill="black"/>
    <path d="M60.8145 89.4414C60.1387 89.4414 59.5918 88.8945 59.5918 88.2187C59.5918 85.5742 61.7441 83.4219 64.3887 83.4219C65.0645 83.4219 65.6113 83.9688 65.6113 84.6445C65.6113 85.3203 65.0645 85.8672 64.3887 85.8672C63.0938 85.8672 62.0391 86.9219 62.0391 88.2168C62.0391 88.8926 61.4922 89.4395 60.8164 89.4395L60.8145 89.4414Z" fill="black"/>
    <path d="M29.9823 65.7305C29.6425 65.7305 29.3046 65.5899 29.0624 65.3145C28.6171 64.8067 28.6679 64.0332 29.1737 63.5879C33.119 60.125 33.9804 55.9493 33.9882 55.9082C34.119 55.2481 34.7597 54.8125 35.4218 54.9414C36.0839 55.0703 36.5175 55.7071 36.3905 56.3692C36.3515 56.5723 35.3905 61.3848 30.787 65.4258C30.5546 65.6289 30.2675 65.7305 29.9804 65.7305H29.9823Z" fill="black"/>
    <path d="M9.98065 73.6621C9.41424 73.6621 8.90838 73.2676 8.78534 72.6934C8.64471 72.0332 9.06659 71.3828 9.72674 71.2422C9.81268 71.2246 18.3732 69.3848 24.6525 66.3867C25.2619 66.0957 25.9924 66.3535 26.2834 66.9629C26.5744 67.5723 26.3166 68.3027 25.7072 68.5938C19.1623 71.7207 10.5978 73.5586 10.2365 73.6348C10.1506 73.6524 10.0646 73.6621 9.98065 73.6621Z" fill="black"/>
    <path d="M60.4531 36.2617C60.2266 36.4883 60.0781 36.7637 59.9961 37.0527L62.6016 34.1133L60.4531 36.2617Z" fill="#FACD59"/>
    <path d="M66.0957 41.9063L98.2891 9.71289C98.5664 9.43555 98.7187 9.08398 98.7598 8.7207L65.1328 42.4082C65.4863 42.3438 65.8242 42.1777 66.0977 41.9043L66.0957 41.9063Z" fill="#FACD59"/>
    <path d="M60.4531 38.8418L63.5176 41.9062C63.9512 42.3398 64.5449 42.5039 65.1074 42.4121L60.0117 38.0957C60.0977 38.3691 60.2383 38.627 60.4551 38.8418H60.4531Z" fill="#FACD59"/>
    <path d="M65.1191 42.4219L65.1328 42.4082C65.1328 42.4082 65.1152 42.4082 65.1074 42.4102L65.1191 42.4199V42.4219Z" fill="#F8BE42"/>
    <path d="M59.9961 37.0527L59.4746 37.6406L60.0098 38.0937C59.9043 37.7539 59.9004 37.3945 59.9961 37.0527Z" fill="#F8BE42"/>
    <path d="M98.7598 8.71094V8.72266L98.7656 8.71484L98.7598 8.71094Z" fill="#F8BE42"/>
    <path d="M67.1641 35.5547L97.1563 6.22461L95.002 4.07031C94.3516 3.41992 93.2949 3.41992 92.6445 4.07031L62.6016 34.1133L64.3125 35.623C65.1348 36.3496 66.3789 36.3184 67.1641 35.5547Z" fill="#FACD59"/>
    <path d="M60.4531 38.8418L63.5176 41.9062C64.2305 42.6191 65.3848 42.6191 66.0977 41.9062L98.2891 9.71289C98.9395 9.0625 98.9395 8.00586 98.2891 7.35547L97.1563 6.22266L67.1641 35.5527C66.377 36.3184 65.1348 36.3477 64.3125 35.6211L62.6016 34.1113L60.4531 36.2598C59.7402 36.9727 59.7402 38.127 60.4531 38.8398V38.8418Z" fill="#F8BE42"/>
    <path d="M64.8066 43.6621C64.0273 43.6621 63.2461 43.3652 62.6523 42.7715L59.5879 39.707C59.0117 39.1309 58.6953 38.3672 58.6953 37.5527C58.6953 36.7383 59.0117 35.9727 59.5879 35.3984L91.7793 3.20508C92.9063 2.07812 94.7402 2.07812 95.8672 3.20508L99.1543 6.49219C99.7012 7.03711 100 7.76367 100 8.53516C100 9.30664 99.6992 10.0332 99.1543 10.5781L66.9629 42.7695C66.3691 43.3633 65.5879 43.6602 64.8086 43.6602L64.8066 43.6621ZM93.8242 4.80664C93.7109 4.80664 93.5977 4.84961 93.5098 4.93555L61.3184 37.127C61.166 37.2793 61.1426 37.459 61.1426 37.5527C61.1426 37.6465 61.166 37.8242 61.3184 37.9766L64.3828 41.041C64.6172 41.2754 64.998 41.2754 65.2324 41.041L97.4238 8.84961C97.5371 8.73633 97.5527 8.60547 97.5527 8.53516C97.5527 8.46484 97.5352 8.33398 97.4238 8.2207L94.1367 4.93359C94.0508 4.84766 93.9375 4.80469 93.8223 4.80469L93.8242 4.80664Z" fill="black"/>
    <path d="M51.3242 39.7305L48.9844 42.0527L49.3984 42.4805C49.4277 41.9453 49.6387 41.418 50.0488 41.0078L51.3262 39.7305H51.3242Z" fill="#FACD59"/>
    <path d="M66.0078 47.2129L66.5664 46.6836L66.1074 46.1211C66.1641 46.4863 66.1309 46.8613 66.0078 47.2129Z" fill="#FACD59"/>
    <path d="M59.4863 52.8945L59.7422 53.1582L60.0332 52.8828C59.8516 52.9102 59.6699 52.9121 59.4863 52.8945Z" fill="#FACD59"/>
    <path d="M60.8008 45.3301L63.3828 42.7754L57.4277 36.8203C56.5449 35.9375 55.1152 35.9375 54.2324 36.8203L51.3262 39.7266L56.9102 45.3184C57.9824 46.3926 59.7227 46.3984 60.8008 45.3301Z" fill="#FCDF76"/>
    <path d="M50.0469 44.2012L58.0977 52.252C58.9805 53.1348 60.4102 53.1348 61.293 52.252L65.4785 48.0664C66.3613 47.1836 66.3613 45.7539 65.4785 44.8711L63.3809 42.7734L60.7988 45.3281C59.7207 46.3965 57.9805 46.3906 56.9082 45.3164L51.3242 39.7246L50.0449 41.0039C49.1621 41.8867 49.1621 43.3164 50.0449 44.1992L50.0469 44.2012Z" fill="#FACD59"/>
    <path d="M59.6953 54.1367C58.8047 54.1367 57.9121 53.7969 57.2324 53.1191L49.1816 45.0664C47.8242 43.709 47.8242 41.5 49.1816 40.1426L53.3672 35.957C54.7246 34.5996 56.9336 34.5996 58.291 35.957L66.3438 44.0098C67.7012 45.3672 67.7012 47.5762 66.3438 48.9336L62.1582 53.1191C61.4785 53.7988 60.5879 54.1367 59.6953 54.1367ZM58.9629 51.3887C59.3672 51.793 60.0234 51.793 60.4277 51.3887L64.6133 47.2031C65.0176 46.7988 65.0176 46.1426 64.6133 45.7383L56.5605 37.6855C56.1562 37.2812 55.5 37.2812 55.0957 37.6855L50.9102 41.8711C50.5059 42.2754 50.5059 42.9316 50.9102 43.3359L58.9609 51.3867L58.9629 51.3887Z" fill="black"/>
    <path d="M34.0274 97.4102C33.3633 97.4102 32.7188 97.1387 32.2481 96.6387L19.1348 82.707C18.8751 82.4316 18.7579 82.0527 18.8165 81.6797L19.3301 78.3867L16.0587 79.1992C15.6505 79.3008 15.2188 79.1855 14.9161 78.8926L5.51178 69.832C4.8692 69.2129 4.61334 68.293 4.84772 67.4316C5.08014 66.5723 5.76178 65.9062 6.62506 65.6953C10.1719 64.8301 18.9044 62.3828 23.4083 58.3809C26.1172 55.9727 26.6934 54.459 27.3047 52.8574C28.0098 51.0059 28.8087 48.9082 32.543 45.7207C38.0899 40.9863 47.5372 39.6016 55.1739 47.752C62.5899 55.666 60.4141 64.6758 56.2989 69.9863C54.6563 72.1055 53.004 73.0137 51.0919 74.0664C49.1368 75.1426 46.9219 76.3613 43.8829 79.2988C39.2422 83.7852 37.1212 92.0957 36.4239 95.4609C36.2383 96.3574 35.5762 97.0703 34.6954 97.3184C34.4747 97.3809 34.2501 97.4121 34.0274 97.4121V97.4102ZM21.3262 81.4668L34.0294 94.9629C34.9512 90.5098 37.2383 82.3223 42.1837 77.541C45.4571 74.375 47.9297 73.0156 49.9141 71.9238C51.7266 70.9277 53.0352 70.207 54.3672 68.4883C58.0626 63.7207 59.7462 56.209 53.3907 49.4258C48.8067 44.5332 40.8262 41.8711 34.1329 47.582C30.8731 50.3652 30.2501 51.998 29.5919 53.7285C28.9044 55.5352 28.1915 57.4043 25.0352 60.2109C20.2989 64.4199 11.8321 66.9434 7.20709 68.0742L16.129 76.6641L20.5313 75.5723C20.9297 75.4746 21.3497 75.5801 21.6524 75.8574C21.9551 76.1348 22.0977 76.543 22.0352 76.9492L21.3282 81.4707L21.3262 81.4668Z" fill="black"/>
    <path d="M29.8125 92.2676C29.8125 92.2676 30.5 86.4121 32.416 82.9531L29.8125 92.2676Z" fill="#DBD7DB"/>
    <path d="M29.8145 93.4922C29.7676 93.4922 29.7188 93.4902 29.6699 93.4844C29 93.4063 28.5196 92.7969 28.5977 92.127C28.627 91.8789 29.3379 85.9902 31.3457 82.3613C31.6719 81.7695 32.416 81.5566 33.0078 81.8848C33.5996 82.2129 33.8125 82.957 33.4844 83.5469C31.711 86.75 31.0313 92.3555 31.0254 92.4121C30.9512 93.0352 30.4239 93.4922 29.8125 93.4922H29.8145Z" fill="black"/>
    <path d="M65.2344 71.1953C62.8145 72.3164 61.0723 74.6543 60.8066 77.4277C60.6738 77.4199 60.541 77.4082 60.4062 77.4082C56.1582 77.4082 52.7168 80.8516 52.7168 85.0977C52.7168 85.4434 52.748 85.7813 52.791 86.1133C51.8711 85.7246 50.8613 85.5098 49.8008 85.5098C46.5781 85.5098 43.8223 87.4941 42.6777 90.3066H61.9766C61.9766 90.3066 77.1699 91.2461 65.2344 71.1953Z" fill="#DBD7DB"/>
    <path d="M0.273438 89.0957C0.244141 89.6816 0.152344 90.248 0 90.791C0.208984 90.2187 0.292969 89.6523 0.273438 89.0957Z" fill="#D5CED4"/>
    <path d="M75.5469 81.1562C75.9336 80.2383 76.1484 79.2285 76.1484 78.1699C76.1484 76.1113 75.334 74.2441 74.0156 72.8633C73.9746 72.8203 73.9395 72.7754 73.8965 72.7324H73.8945C73.5586 72.3945 73.1914 72.0918 72.7988 71.8223C71.5625 70.9746 70.0684 70.4766 68.457 70.4766C67.3184 70.4766 66.2422 70.7305 65.2715 71.1738C65.2598 71.1797 65.2461 71.1855 65.2324 71.1914C77.168 91.2422 61.9746 90.3027 61.9746 90.3027H42.6758C42.6758 90.3027 42.6719 90.3164 42.668 90.3223C42.3086 91.2109 42.1074 92.1797 42.1074 93.1973C42.1074 94.3418 42.3652 95.4258 42.8125 96.4023H74.1504C77.6758 96.4023 80.6406 94.0254 81.5488 90.7891C81.7012 90.2461 81.793 89.6777 81.8223 89.0938C81.8281 88.9668 81.8418 88.8418 81.8418 88.7129C81.8418 84.9434 79.127 81.8125 75.5449 81.1543L75.5469 81.1562Z" fill="#D5CED4"/>
    <path d="M74.1523 97.627H42.8145C42.3359 97.627 41.9023 97.3477 41.7031 96.9141C41.1602 95.7324 40.8848 94.4824 40.8848 93.1992C40.8848 88.2852 44.8828 84.2852 49.7988 84.2852C50.3809 84.2852 50.9531 84.3398 51.5156 84.4492C51.832 80.0469 55.3613 76.5195 59.7637 76.2051C60.6602 72.1738 64.2207 69.2559 68.459 69.2559C73.373 69.2559 77.373 73.2539 77.373 78.1699C77.373 78.8984 77.2871 79.6133 77.1152 80.3105C80.6348 81.5449 83.0684 84.8848 83.0684 88.7148C83.0684 93.6289 79.0703 97.6289 74.1543 97.6289L74.1523 97.627ZM43.6465 95.1797H74.1523C77.7188 95.1797 80.6191 92.2793 80.6191 88.7129C80.6191 85.5937 78.3926 82.9199 75.3262 82.3574C74.9609 82.291 74.6465 82.0625 74.4707 81.7363C74.2949 81.4102 74.2754 81.0215 74.4199 80.6797C74.7559 79.8848 74.9258 79.0391 74.9258 78.168C74.9258 74.6016 72.0254 71.7012 68.459 71.7012C65.1094 71.7012 62.3438 74.2129 62.0234 77.541C61.9609 78.1914 61.4023 78.6758 60.7441 78.6465L60.5918 78.6367C60.5313 78.6328 60.4688 78.627 60.4062 78.627C56.8398 78.627 53.9395 81.5273 53.9395 85.0937C53.9395 85.3477 53.959 85.6191 54.0039 85.9492C54.0605 86.3848 53.8828 86.8164 53.5332 87.082C53.1836 87.3477 52.7207 87.4062 52.3164 87.2363C51.5195 86.9004 50.6738 86.7285 49.8008 86.7285C46.2344 86.7285 43.334 89.6289 43.334 93.1953C43.334 93.8711 43.4395 94.5352 43.6484 95.1758L43.6465 95.1797Z" fill="black"/>
  </g>
  <defs>
    <clipPath id="clip0_116_924">
      <rect width="100" height="100" fill="white"/>
    </clipPath>
  </defs>
</svg>