<svg xmlns="http://www.w3.org/2000/svg" width="100" height="100" viewBox="0 0 100 100" fill="none">
  <g clip-path="url(#clip0_116_982)">
    <path d="M40.3008 50.125C40.3008 36.627 29.3594 25.6855 15.8613 25.6855C29.3594 25.6855 40.3008 14.7441 40.3008 1.24609C40.3008 14.7441 51.2422 25.6855 64.7402 25.6855C51.2422 25.6855 40.3008 36.627 40.3008 50.125Z" fill="#FACD59"/>
    <path d="M40.3008 51.3672C39.6133 51.3672 39.0566 50.8105 39.0566 50.123C39.0566 37.332 28.6504 26.9277 15.8613 26.9277C15.1738 26.9277 14.6172 26.3711 14.6172 25.6836C14.6172 24.9961 15.1738 24.4395 15.8613 24.4395C28.6523 24.4395 39.0566 14.0332 39.0566 1.24414C39.0566 0.556641 39.6133 0 40.3008 0C40.9883 0 41.5449 0.556641 41.5449 1.24414C41.5449 14.0352 51.9512 24.4395 64.7402 24.4395C65.4277 24.4395 65.9844 24.9961 65.9844 25.6836C65.9844 26.3711 65.4277 26.9277 64.7402 26.9277C51.9492 26.9277 41.5449 37.334 41.5449 50.123C41.5449 50.8105 40.9883 51.3672 40.3008 51.3672ZM23.7637 25.6836C31.5801 28.2168 37.7656 34.4043 40.3008 42.2207C42.834 34.4043 49.0215 28.2188 56.8379 25.6836C49.0215 23.1504 42.8359 16.9629 40.3008 9.14648C37.7676 16.9629 31.5801 23.1484 23.7637 25.6836Z" fill="black"/>
    <path d="M75.959 66.9473C75.959 57.1074 67.9824 49.1309 58.1426 49.1309C67.9824 49.1309 75.959 41.1543 75.959 31.3145C75.959 41.1543 83.9355 49.1309 93.7754 49.1309C83.9355 49.1309 75.959 57.1074 75.959 66.9473Z" fill="#FACD59"/>
    <path d="M75.959 68.1914C75.2715 68.1914 74.7148 67.6348 74.7148 66.9473C74.7148 57.8086 67.2812 50.375 58.1426 50.375C57.4551 50.375 56.8984 49.8184 56.8984 49.1309C56.8984 48.4434 57.4551 47.8867 58.1426 47.8867H58.2031C67.3125 47.8535 74.7148 40.4316 74.7148 31.3145C74.7148 30.627 75.2715 30.0703 75.959 30.0703C76.6465 30.0703 77.2031 30.627 77.2031 31.3145C77.2031 40.4531 84.6367 47.8867 93.7754 47.8867C94.4629 47.8867 95.0195 48.4434 95.0195 49.1309C95.0195 49.8184 94.4629 50.375 93.7754 50.375H93.7148C84.6035 50.4082 77.2031 57.8301 77.2031 66.9473C77.2031 67.6348 76.6465 68.1914 75.959 68.1914ZM64.918 49.1309C69.9863 51.0645 74.0254 55.1035 75.959 60.1719C77.8926 55.1035 81.9316 51.0645 87 49.1309C81.9316 47.1973 77.8926 43.1582 75.959 38.0898C74.0254 43.1582 69.9863 47.1973 64.918 49.1309Z" fill="black"/>
    <path d="M29.6621 98.7559C29.6621 88.916 21.6855 80.9395 11.8457 80.9395C21.6855 80.9395 29.6621 72.9629 29.6621 63.123C29.6621 72.9629 37.6387 80.9395 47.4785 80.9395C37.6387 80.9395 29.6621 88.916 29.6621 98.7559Z" fill="#FACD59"/>
    <path d="M29.6621 100C28.9746 100 28.418 99.4434 28.418 98.7559C28.418 89.6172 20.9844 82.1836 11.8457 82.1836C11.1582 82.1836 10.6016 81.627 10.6016 80.9395C10.6016 80.252 11.1582 79.6953 11.8457 79.6953C20.9844 79.6953 28.418 72.2617 28.418 63.123C28.418 62.4355 28.9746 61.8789 29.6621 61.8789C30.3496 61.8789 30.9062 62.4355 30.9062 63.123C30.9062 72.2617 38.3398 79.6953 47.4785 79.6953C48.166 79.6953 48.7227 80.252 48.7227 80.9395C48.7227 81.627 48.166 82.1836 47.4785 82.1836C38.3398 82.1836 30.9062 89.6172 30.9062 98.7559C30.9062 99.4434 30.3496 100 29.6621 100ZM18.6211 80.9395C23.6895 82.873 27.7285 86.9121 29.6621 91.9805C31.5957 86.9121 35.6348 82.873 40.7031 80.9395C35.6348 79.0059 31.5957 74.9668 29.6621 69.8984C27.7285 74.9668 23.6895 79.0059 18.6211 80.9395Z" fill="black"/>
    <path d="M15.4727 56.8027C14.7852 56.8027 14.2285 56.2461 14.2285 55.5586V51.2363C14.2285 50.5488 14.7852 49.9922 15.4727 49.9922C16.1602 49.9922 16.7168 50.5488 16.7168 51.2363V55.5586C16.7168 56.2461 16.1602 56.8027 15.4727 56.8027Z" fill="black"/>
    <path d="M15.4727 42.627C14.7852 42.627 14.2285 42.0703 14.2285 41.3828V37.0605C14.2285 36.373 14.7852 35.8164 15.4727 35.8164C16.1602 35.8164 16.7168 36.373 16.7168 37.0605V41.3828C16.7168 42.0703 16.1602 42.627 15.4727 42.627Z" fill="black"/>
    <path d="M24.7227 47.5527H20.4004C19.7129 47.5527 19.1562 46.9961 19.1562 46.3086C19.1562 45.6211 19.7129 45.0645 20.4004 45.0645H24.7227C25.4102 45.0645 25.9668 45.6211 25.9668 46.3086C25.9668 46.9961 25.4102 47.5527 24.7227 47.5527Z" fill="black"/>
    <path d="M10.5469 47.5527H6.22461C5.53711 47.5527 4.98047 46.9961 4.98047 46.3086C4.98047 45.6211 5.53711 45.0645 6.22461 45.0645H10.5469C11.2344 45.0645 11.791 45.6211 11.791 46.3086C11.791 46.9961 11.2344 47.5527 10.5469 47.5527Z" fill="black"/>
    <path d="M75.8066 98.2363C75.1191 98.2363 74.5625 97.6797 74.5625 96.9922V92.6699C74.5625 91.9824 75.1191 91.4258 75.8066 91.4258C76.4941 91.4258 77.0508 91.9824 77.0508 92.6699V96.9922C77.0508 97.6797 76.4941 98.2363 75.8066 98.2363Z" fill="black"/>
    <path d="M75.8066 84.0606C75.1191 84.0606 74.5625 83.5039 74.5625 82.8164V78.4941C74.5625 77.8066 75.1191 77.25 75.8066 77.25C76.4941 77.25 77.0508 77.8066 77.0508 78.4941V82.8164C77.0508 83.5039 76.4941 84.0606 75.8066 84.0606Z" fill="black"/>
    <path d="M85.0547 88.9863H80.7324C80.0449 88.9863 79.4883 88.4297 79.4883 87.7422C79.4883 87.0547 80.0449 86.498 80.7324 86.498H85.0547C85.7422 86.498 86.2988 87.0547 86.2988 87.7422C86.2988 88.4297 85.7422 88.9863 85.0547 88.9863Z" fill="black"/>
    <path d="M70.8809 88.9863H66.5586C65.8711 88.9863 65.3145 88.4297 65.3145 87.7422C65.3145 87.0547 65.8711 86.498 66.5586 86.498H70.8809C71.5684 86.498 72.125 87.0547 72.125 87.7422C72.125 88.4297 71.5684 88.9863 70.8809 88.9863Z" fill="black"/>
  </g>
  <defs>
    <clipPath id="clip0_116_982">
      <rect width="100" height="100" fill="white"/>
    </clipPath>
  </defs>
</svg>