<svg xmlns="http://www.w3.org/2000/svg" width="100" height="100" viewBox="0 0 100 100" fill="none">
  <g clip-path="url(#clip0_116_967)">
    <path d="M53.8477 25.0801L19.3262 59.5176V94.0879C19.3262 95.9356 20.8379 97.4453 22.6836 97.4453C24.5293 97.4453 26.041 95.9336 26.041 94.0879V80.9043C26.041 80.9043 26.041 80.8867 26.041 80.8789C26.041 79.293 27.3262 78.0078 28.9121 78.0078C29.6895 78.0078 30.3926 78.3184 30.9102 78.8184C31.4473 79.3418 31.7832 80.0703 31.7832 80.8789V87.5684C31.7832 89.4121 33.291 90.918 35.1328 90.918C36.9746 90.918 38.4824 89.4102 38.4824 87.5684V81.8184C38.4824 80.4766 39.9531 79.3027 41.3535 79.3027C42.916 79.3027 44.2246 80.4766 44.2246 81.6387V95.2383C44.2246 97.166 45.8008 98.7422 47.7285 98.7422C49.6562 98.7422 51.2324 97.166 51.2324 95.2383V81.2578L51.2617 77.2891C51.2617 76.6738 51.2324 76.3027 51.2324 75.7207C51.2324 74.1992 52.4668 72.9648 53.9883 72.9648C55.1738 72.9648 56.7383 73.8789 56.7383 75.541H56.7441V82.9453C56.7441 84.7891 58.252 86.2949 60.0957 86.2949C61.9395 86.2949 63.4453 84.7871 63.4453 82.9453V23.582L53.8438 25.0801H53.8477Z" fill="#FACD59"/>
    <path d="M46.4453 0.943698L4.19571 43.1933C3.51916 43.8699 3.51916 44.9668 4.19571 45.6433L17.5147 58.9624C18.1913 59.6389 19.2882 59.6389 19.9647 58.9624L62.2144 16.7127C62.8909 16.0362 62.8909 14.9393 62.2144 14.2627L48.8954 0.943698C48.2188 0.267145 47.1219 0.267145 46.4453 0.943698Z" fill="#FACD59"/>
    <path d="M17.4238 58.8711L15.9102 57.3574L60.6094 12.6562L62.123 14.1699C62.8496 14.8965 62.8496 16.0762 62.123 16.8047L20.0586 58.8711C19.332 59.5977 18.1523 59.5977 17.4238 58.8711Z" fill="#CC9D3E"/>
    <path d="M64.1322 54.5755L57.9533 60.7544C57.0654 61.6422 57.0654 63.0817 57.9533 63.9695L87.8838 93.9C88.7716 94.7878 90.2111 94.7878 91.0989 93.9L97.2778 87.7211C98.1656 86.8333 98.1656 85.3938 97.2778 84.506L67.3473 54.5755C66.4595 53.6876 65.02 53.6876 64.1322 54.5755Z" fill="#94350F"/>
    <path d="M89.4922 94.7402C87.918 94.7402 86.3438 94.1406 85.1465 92.9434L58.9121 66.709C57.7539 65.5527 57.1172 64.0078 57.1172 62.3633C57.1172 60.7187 57.7539 59.1738 58.9121 58.0176L61.3945 55.5352C63.791 53.1387 67.6914 53.1387 70.0879 55.5352L96.3223 81.7695C98.7188 84.166 98.7188 88.0664 96.3223 90.4629L93.8398 92.9453C92.6426 94.1426 91.0664 94.7422 89.4941 94.7422L89.4922 94.7402ZM65.7402 56.252C64.8105 56.252 63.8828 56.6055 63.1758 57.3125L60.6934 59.7949C59.2793 61.209 59.2793 63.5098 60.6934 64.9258L86.9277 91.1602C87.6094 91.8418 88.5195 92.2168 89.4922 92.2168C90.4648 92.2168 91.377 91.8418 92.0566 91.1602L94.5391 88.6777C95.9531 87.2637 95.9531 84.9629 94.5391 83.5469L68.3047 57.3125C67.5977 56.6055 66.668 56.252 65.7402 56.252Z" fill="black"/>
    <path d="M47.7344 100C45.1074 100 42.9707 97.8633 42.9707 95.2363V81.6367C42.9707 81.2578 42.3066 80.5605 41.3594 80.5605C40.6055 80.5605 39.748 81.2285 39.748 81.8164V87.5664C39.748 90.1094 37.6797 92.1777 35.1367 92.1777C32.5937 92.1777 30.5254 90.1094 30.5254 87.5664V80.877C30.5254 80.4824 30.2168 79.9082 30.0137 79.7012C29.8672 79.5527 29.3242 79.2656 28.9141 79.2656C28.0332 79.2656 27.3164 79.9746 27.3027 80.8516V94.0859C27.3027 96.6328 25.2305 98.7031 22.6836 98.7031C20.1367 98.7031 18.0664 96.6309 18.0664 94.0859V76.7285C18.0664 76.0332 18.6309 75.4687 19.3262 75.4687C20.0215 75.4687 20.5859 76.0332 20.5859 76.7285V94.0859C20.5859 95.2422 21.5273 96.1836 22.6836 96.1836C23.8398 96.1836 24.7812 95.2422 24.7812 94.0859V80.875C24.7812 78.5977 26.6348 76.7441 28.9121 76.7441C30.0469 76.7441 31.2285 77.3418 31.8105 77.9336C32.4043 78.5391 33.0449 79.7168 33.0449 80.875V87.5645C33.0449 88.7168 33.9824 89.6563 35.1348 89.6563C36.2871 89.6563 37.2246 88.7187 37.2246 87.5645V81.8145C37.2246 79.8398 39.1934 78.0391 41.3555 78.0391C43.5176 78.0391 45.4824 79.7168 45.4863 81.6289V95.2344C45.4863 96.4727 46.4922 97.4785 47.7305 97.4785C48.9688 97.4785 49.9746 96.4727 49.9746 95.2344V81.2539L50.0039 77.2773L49.998 75.7227C49.998 73.5039 51.7891 71.7031 53.9902 71.7031C55.9629 71.7031 58.0059 73.2129 58.0059 75.7402V82.9434C58.0059 84.0957 58.9434 85.0332 60.0957 85.0332C61.248 85.0332 62.1875 84.0957 62.1875 82.9434V76.3555C62.1875 75.6602 62.752 75.0957 63.4473 75.0957C64.1426 75.0957 64.707 75.6602 64.707 76.3555V82.9434C64.707 85.4863 62.6387 87.5547 60.0957 87.5547C57.5527 87.5547 55.4844 85.4863 55.4844 82.9434V75.7402C55.4844 74.4961 54.4043 74.2227 53.9883 74.2227C53.1621 74.2227 52.5156 74.8789 52.5156 75.7187L52.5215 77.2832L52.4922 81.2656V95.2363C52.4922 97.8633 50.3555 100 47.7285 100H47.7344Z" fill="black"/>
    <path d="M63.4492 51.2598C62.7539 51.2598 62.1895 50.6953 62.1895 50V23.582C62.1895 22.8867 62.7539 22.3223 63.4492 22.3223C64.1445 22.3223 64.709 22.8867 64.709 23.582V50C64.709 50.6953 64.1445 51.2598 63.4492 51.2598Z" fill="black"/>
    <path d="M14.7481 73.1231C13.4492 73.1231 12.1582 72.6172 11.1914 71.6328L2.84961 63.1621C1.55469 61.8477 1.5586 59.7129 2.85743 58.4043L9.87305 51.3262C10.3633 50.8321 11.1602 50.8281 11.6543 51.3184C12.1484 51.8086 12.1523 52.6055 11.6621 53.0996L4.64649 60.1778C4.31446 60.5137 4.31446 61.0586 4.64454 61.3946L12.9863 69.8653C13.8223 70.7149 15.1465 70.8457 16.1348 70.1758L48.5723 48.1485C50.1133 47.1016 52.1914 47.2949 53.5137 48.6074L61.8359 56.8672C62.3301 57.3574 62.332 58.1543 61.8418 58.6485C61.3516 59.1426 60.5527 59.1446 60.0606 58.6543L51.7383 50.3946C51.2695 49.9297 50.5332 49.8614 49.9863 50.2324L17.5488 72.2598C16.6953 72.8399 15.7188 73.1231 14.7461 73.1231H14.7481Z" fill="black"/>
    <path d="M18.7402 59.9023C17.4648 59.9023 16.1875 59.416 15.2168 58.4453L4.71289 47.9414C2.76953 45.998 2.76953 42.8359 4.71289 40.8945L44.1484 1.45898C45.0898 0.517578 46.3418 0 47.6719 0C49.002 0 50.2539 0.517578 51.1953 1.45898L61.6992 11.9629C63.6426 13.9062 63.6426 17.0684 61.6992 19.0098L22.2637 58.4453C21.293 59.418 20.0156 59.9023 18.7402 59.9023ZM47.6719 2.52148C47.041 2.52148 46.4102 2.76172 45.9297 3.24219L6.49414 42.6758C5.5332 43.6367 5.5332 45.1992 6.49414 46.1602L16.998 56.6641C17.959 57.625 19.5215 57.625 20.4824 56.6641L59.918 17.2305C60.8789 16.2695 60.8789 14.707 59.918 13.7461L49.4141 3.24219C48.9336 2.76172 48.3027 2.52148 47.6719 2.52148Z" fill="black"/>
  </g>
  <defs>
    <clipPath id="clip0_116_967">
      <rect width="100" height="100" fill="white"/>
    </clipPath>
  </defs>
</svg>