<svg width="40" height="40" viewBox="0 0 40 40" fill="none" xmlns="http://www.w3.org/2000/svg">
<path opacity="0.4" d="M31.9 32.5001C34.85 29.5001 36.6667 25.3667 36.6667 20.8334C36.6667 11.6334 29.2 4.16675 20 4.16675C10.8 4.16675 3.33337 11.6334 3.33337 20.8334C3.33337 25.3667 5.13337 29.4667 8.0667 32.4834" stroke="#E947B9" stroke-width="2.5" stroke-miterlimit="10" stroke-linecap="round" stroke-linejoin="round"/>
<path d="M20.0002 35.8333C23.1114 35.8333 25.6335 33.3112 25.6335 30.2C25.6335 27.0888 23.1114 24.5667 20.0002 24.5667C16.889 24.5667 14.3668 27.0888 14.3668 30.2C14.3668 33.3112 16.889 35.8333 20.0002 35.8333Z" stroke="#E947B9" stroke-width="2.5" stroke-miterlimit="10" stroke-linecap="round" stroke-linejoin="round"/>
<path d="M25.4166 20H26.6666C28.0333 20 29.1666 18.8833 29.1666 17.5C29.1666 16.1333 28.0333 15 26.6666 15C25.3 15 24.1666 16.1167 24.1666 17.5V18.75C24.1666 19.4333 24.7333 20 25.4166 20Z" stroke="#E947B9" stroke-width="2.5" stroke-miterlimit="10" stroke-linecap="round" stroke-linejoin="round"/>
</svg>
