<svg width="40" height="40" viewBox="0 0 40 40" fill="none" xmlns="http://www.w3.org/2000/svg">
<path d="M36.6665 28.6665C36.6665 30.1665 36.2498 31.5831 35.4998 32.7831C34.1165 35.0998 31.5832 36.6665 28.6665 36.6665C25.7498 36.6665 23.1998 35.0998 21.8332 32.7831C21.0998 31.5831 20.6665 30.1665 20.6665 28.6665C20.6665 24.2498 24.2498 20.6665 28.6665 20.6665C33.0832 20.6665 36.6665 24.2498 36.6665 28.6665Z" stroke="#EF4D4D" stroke-width="2.5" stroke-miterlimit="10" stroke-linecap="round" stroke-linejoin="round"/>
<path d="M25.5497 28.6666L27.5164 30.6333L31.7831 26.7" stroke="#EF4D4D" stroke-width="2.5" stroke-linecap="round" stroke-linejoin="round"/>
<path opacity="0.4" d="M36.6666 14.4835C36.6666 17.7668 35.8166 20.6667 34.4833 23.1834C33.0166 21.6334 30.95 20.6668 28.6666 20.6668C24.25 20.6668 20.6666 24.2501 20.6666 28.6668C20.6666 30.7168 21.45 32.5835 22.7166 34.0002C22.1 34.2835 21.5333 34.5168 21.0333 34.6835C20.4666 34.8835 19.5333 34.8835 18.9666 34.6835C14.1333 33.0335 3.33331 26.1501 3.33331 14.4835C3.33331 9.33346 7.48332 5.16675 12.6 5.16675C15.6166 5.16675 18.3166 6.63348 20 8.88348C21.6833 6.63348 24.3833 5.16675 27.4 5.16675C32.5166 5.16675 36.6666 9.33346 36.6666 14.4835Z" stroke="#EF4D4D" stroke-width="2.5" stroke-linecap="round" stroke-linejoin="round"/>
</svg>
