<svg width="40" height="40" viewBox="0 0 40 40" fill="none" xmlns="http://www.w3.org/2000/svg">
<path d="M25.9833 20.4332C30.7054 20.4332 34.5333 16.6053 34.5333 11.8833C34.5333 7.16123 30.7054 3.33325 25.9833 3.33325C21.2613 3.33325 17.4333 7.16123 17.4333 11.8833C17.4333 16.6053 21.2613 20.4332 25.9833 20.4332Z" stroke="#4B94EE" stroke-width="2.5" stroke-miterlimit="10"/>
<path opacity="0.4" d="M10.6 32.4C13.435 32.4 15.7333 30.1017 15.7333 27.2666C15.7333 24.4316 13.435 22.1333 10.6 22.1333C7.76492 22.1333 5.46667 24.4316 5.46667 27.2666C5.46667 30.1017 7.76492 32.4 10.6 32.4Z" stroke="#4B94EE" stroke-width="2.5" stroke-miterlimit="10"/>
<path opacity="0.4" d="M27.7 36.6664C30.0564 36.6664 31.9667 34.7561 31.9667 32.3997C31.9667 30.0433 30.0564 28.1331 27.7 28.1331C25.3436 28.1331 23.4333 30.0433 23.4333 32.3997C23.4333 34.7561 25.3436 36.6664 27.7 36.6664Z" stroke="#4B94EE" stroke-width="2.5" stroke-miterlimit="10"/>
</svg>
