<svg width="40" height="40" viewBox="0 0 40 40" fill="none" xmlns="http://www.w3.org/2000/svg">
<path d="M36.6667 9.99992V14.0332C36.6667 16.6666 35 18.3333 32.3667 18.3333H26.6667V6.68325C26.6667 4.83325 28.1833 3.33325 30.0333 3.33325C31.85 3.34992 33.5167 4.08325 34.7167 5.28325C35.9167 6.49992 36.6667 8.16659 36.6667 9.99992Z" stroke="#5FB4D0" stroke-width="2.5" stroke-miterlimit="10" stroke-linecap="round" stroke-linejoin="round"/>
<path d="M3.33333 11.6666V34.9999C3.33333 36.3832 4.89999 37.1666 5.99999 36.3333L8.84999 34.1999C9.51666 33.6999 10.45 33.7666 11.05 34.3666L13.8167 37.1499C14.4667 37.7999 15.5333 37.7999 16.1833 37.1499L18.9833 34.3499C19.5667 33.7666 20.5 33.6999 21.15 34.1999L24 36.3333C25.1 37.1499 26.6667 36.3666 26.6667 34.9999V6.66658C26.6667 4.83325 28.1667 3.33325 30 3.33325H11.6667H9.99999C4.99999 3.33325 3.33333 6.31658 3.33333 9.99992V11.6666Z" stroke="#5FB4D0" stroke-width="2.5" stroke-miterlimit="10" stroke-linecap="round" stroke-linejoin="round"/>
<path opacity="0.4" d="M15 21.6833H20" stroke="#5FB4D0" stroke-width="2.5" stroke-linecap="round" stroke-linejoin="round"/>
<path opacity="0.4" d="M15 15.0166H20" stroke="#5FB4D0" stroke-width="2.5" stroke-linecap="round" stroke-linejoin="round"/>
<path opacity="0.4" d="M9.99268 21.6667H10.0076" stroke="#5FB4D0" stroke-width="3.33333" stroke-linecap="round" stroke-linejoin="round"/>
<path opacity="0.4" d="M9.99247 15.0001H10.0074" stroke="#5FB4D0" stroke-width="3.33333" stroke-linecap="round" stroke-linejoin="round"/>
</svg>
