<svg width="40" height="40" viewBox="0 0 40 40" fill="none" xmlns="http://www.w3.org/2000/svg">
<path d="M21.5334 3.76689L32.3834 9.61689C33.65 10.3002 33.65 12.2502 32.3834 12.9336L21.5334 18.7836C20.5667 19.3002 19.4334 19.3002 18.4667 18.7836L7.61669 12.9336C6.35002 12.2502 6.35002 10.3002 7.61669 9.61689L18.4667 3.76689C19.4334 3.25023 20.5667 3.25023 21.5334 3.76689Z" stroke="#F2A026" stroke-width="2.5" stroke-linecap="round" stroke-linejoin="round"/>
<path opacity="0.4" d="M6.01665 16.8832L16.1 21.9332C17.35 22.5665 18.15 23.8499 18.15 25.2499V34.7832C18.15 36.1665 16.7 37.0499 15.4666 36.4332L5.38331 31.3832C4.13331 30.7499 3.33331 29.4665 3.33331 28.0665V18.5332C3.33331 17.1499 4.78331 16.2665 6.01665 16.8832Z" stroke="#F2A026" stroke-width="2.5" stroke-linecap="round" stroke-linejoin="round"/>
<path opacity="0.4" d="M33.9835 16.8832L23.9002 21.9332C22.6502 22.5665 21.8502 23.8499 21.8502 25.2499V34.7832C21.8502 36.1665 23.3002 37.0499 24.5335 36.4332L34.6168 31.3832C35.8668 30.7499 36.6668 29.4665 36.6668 28.0665V18.5332C36.6668 17.1499 35.2168 16.2665 33.9835 16.8832Z" stroke="#F2A026" stroke-width="2.5" stroke-linecap="round" stroke-linejoin="round"/>
</svg>
